<svg width="148" height="170" viewBox="0 0 148 170" fill="none" xmlns="http://www.w3.org/2000/svg">
<path d="M53.4534 24.4234C53.4534 24.4234 49.5943 25.2743 47.6215 27.7409C45.6488 30.2075 39.9262 40.1712 38.2491 43.0325C36.5719 45.8938 25.4241 61.481 24.1417 63.5528C22.8593 65.6247 13.585 76.0822 11.6123 77.6602C9.63953 79.2392 3.71953 84.0732 3.6213 85.4538C3.52308 86.8354 0.464395 90.7808 0.562618 91.5703C0.660841 92.3597 0.957347 95.8122 1.35208 95.714C1.7468 95.6158 3.22658 94.7272 3.3248 94.0369C3.42302 93.3465 3.62039 92.0642 3.71953 91.7676C3.81867 91.4721 6.38348 89.301 6.77821 89.2028C7.17294 89.1037 6.18612 90.5844 6.38348 91.0773C6.58085 91.5703 6.38348 92.8527 6.67907 93.0501C6.97466 93.2474 8.3562 93.1483 9.34303 91.7676C10.3298 90.3861 12.8947 87.2292 13.7823 85.5521C14.67 83.8749 15.3603 81.4083 16.7419 80.3233C18.1234 79.2382 26.41 72.9244 28.3836 70.5561C30.3563 68.1886 35.6842 63.4528 37.4596 60.9862C39.2359 58.5196 49.989 42.143 50.3837 41.65C50.7785 41.1571 52.0609 41.9456 52.0609 41.9456C52.0609 41.9456 52.1591 47.5691 53.8371 50.726C55.5143 53.8829 55.4151 55.7574 56.5011 56.5469C57.5861 57.3363 58.08 60.3941 59.3624 61.6774C60.6448 62.9598 61.0396 65.0317 61.6317 67.5965C62.2237 70.1613 63.8017 72.6279 63.8017 72.6279C63.8017 72.6279 55.7116 77.0672 52.2591 80.2241C48.8057 83.381 35.7834 95.4175 34.1062 96.3052C32.4291 97.1929 29.7652 103.113 29.8643 104.691C29.9625 106.27 29.2722 112.781 28.088 115.148C26.9038 117.516 23.9443 128.565 25.2267 130.045C26.5091 131.525 29.8634 132.709 31.3431 133.005C32.8229 133.301 34.8948 132.413 34.8948 132.413C34.8948 132.413 37.3614 146.52 37.3614 147.507C37.3614 148.494 34.8948 147.704 35.2895 149.974C35.6842 152.243 37.5587 155.695 37.3614 157.964C37.164 160.234 36.7693 166.252 36.9666 167.633C37.164 169.014 39.5315 170 39.5315 170C40.3209 169.803 44.4646 167.238 45.747 164.574C47.0295 161.91 48.5092 156.681 48.3119 155.301C48.1145 153.92 51.5679 152.144 52.3565 149.579C53.1459 147.014 54.1318 143.363 52.9485 142.476C51.7644 141.588 44.3655 140.404 44.3655 140.404L44.6611 131.229C44.6611 131.229 48.903 121.856 50.1854 119.489C51.4678 117.121 57.979 109.623 64.6876 105.579C71.3961 101.534 76.6249 98.0805 82.2484 98.9682C87.8719 99.8559 101.388 102.52 108.195 111.695C115.002 120.87 114.141 130.398 118.946 131.044C119.905 130.289 119.501 135.664 122.827 137.882C121.872 139.041 119.223 140.377 119.223 140.377C119.223 140.377 114.903 141.785 114.903 143.66C114.903 145.534 113.917 146.817 115.101 149.086C116.285 151.355 117.173 153.23 116.581 155.499C115.988 157.768 115.199 160.333 118.85 163.589C122.501 166.845 126.446 166.943 126.94 165.858C127.433 164.773 127.729 161.122 127.729 159.347C127.729 157.571 129.209 152.046 130.393 151.356C131.577 150.666 135.326 150.863 135.524 149.777C135.721 148.692 134.636 145.732 136.017 142.279C137.398 138.826 140.161 133.696 137.99 127.875C135.819 122.054 131.971 117.714 132.663 110.512C133.353 103.31 134.734 101.633 133.155 99.2647C131.577 96.8973 117.174 85.5511 112.832 82.296C108.491 79.0399 105.827 75.8831 103.657 75.3901C101.487 74.8971 96.2585 72.4305 95.5672 70.2595C94.8769 68.0894 90.8314 60.3941 90.4367 58.1249C90.042 55.8556 91.0288 52.9943 89.9437 50.8242C88.8587 48.6541 87.0824 41.1562 86.3921 39.2817C85.7018 37.4072 84.6168 33.6582 85.2079 33.2634C85.8 32.8687 91.8182 37.308 97.4408 39.6764C103.064 42.0438 109.675 47.0752 115.002 48.1612C120.33 49.2462 127.827 54.0803 129.8 54.8697C131.773 55.6592 135.029 58.8161 136.904 59.2108C138.778 59.6056 141.145 62.0722 141.738 61.8748C142.33 61.6774 143.217 60.6906 143.217 60.6906L138.581 57.6319L138.778 56.7442L143.217 57.2372C143.217 57.2372 144.302 60.1967 144.894 60.0985C145.487 59.9994 146.177 58.8161 146.177 58.8161C146.177 58.8161 147.164 59.0135 147.262 58.5205C147.36 58.0276 146.67 55.8566 146.67 55.8566C146.67 55.8566 147.873 54.3768 147.271 53.9821C146.669 53.5873 141.441 49.8383 139.862 49.5427C138.284 49.2472 133.943 49.641 130.292 47.2735C126.642 44.9061 121.216 42.8342 116.086 39.7755C110.955 36.7169 98.4267 30.1074 94.5786 27.4435C90.7314 24.7795 82.9369 17.8736 78.3993 17.9728C79.1888 13.9282 75.1433 2.7794 67.8436 1.99086C66.5612 -0.673091 60.6411 -0.376573 58.4711 1.20142C56.301 2.78033 50.6775 8.79764 49.888 13.1387C49.0986 17.4798 50.5783 23.0042 50.5783 23.0042L51.3678 22.5112L53.4534 24.4234Z" fill="white"/>
</svg>
