<svg width="198" height="170" viewBox="0 0 198 170" fill="none" xmlns="http://www.w3.org/2000/svg">
<path d="M196.595 67.0056C194.925 63.9568 195.797 57.5696 193.764 55.5368C191.732 53.5049 190.57 55.2463 188.393 54.2303C186.215 53.2144 180.045 53.4118 180.045 53.4118H177.287C177.287 53.4118 178.376 52.6333 176.126 49.8751C173.876 47.1168 167.778 46.9716 165.237 46.4631C162.697 45.9547 150.14 45.5198 146.945 43.8502C150.865 35.3575 148.833 32.0182 149.631 27.3007C150.429 22.5823 152.172 14.4379 152.172 14.4379C152.172 14.4379 155.58 5.35027 155.662 4.86418C155.743 4.37716 153.105 0.928881 152.7 0.928881C152.295 0.928881 151.686 2.30799 151.686 2.30799C151.686 2.30799 150.063 0.279843 149.536 0.0358666C149.009 -0.207179 147.508 0.846932 147.386 1.33395C147.265 1.82098 149.536 5.39122 149.536 5.39122C149.536 5.39122 146.129 2.714 145.764 2.714C145.399 2.714 144.507 3.97115 144.507 4.45817C144.507 4.94519 147.509 6.73032 147.509 6.73032L148.28 9.44852L145.278 7.42034C145.278 7.42034 144.775 7.43524 144.144 8.0666C143.513 8.69703 146.351 11.851 146.51 14.2163C146.667 16.5816 143.829 24.7818 142.724 26.8314C141.621 28.8819 137.521 41.8127 137.521 41.8127C137.521 41.8127 116.39 35.5046 111.501 34.0855C106.613 32.6663 101.724 35.189 98.5702 37.0812C95.4162 38.9734 94.6283 36.9238 89.5821 36.6081C84.5359 36.2925 64.351 35.3464 61.0396 36.1351C57.7282 36.9238 48.2662 30.3001 45.7427 29.1966C43.22 28.0932 29.5006 23.3617 27.7657 23.2043C26.0309 23.0469 23.8239 24.7809 23.8239 24.7809L15.6237 20.2077C15.6237 20.2077 12.154 16.2649 9.87346 16.738C7.59293 17.2111 4.89988 23.9921 5.05725 26.8304C5.21462 29.6688 2.69199 32.9801 1.27282 37.7116C-0.146338 42.4422 0.169348 47.6467 1.4302 50.485C2.69199 53.3233 5.37201 53.7964 6.94948 53.166C8.52601 52.5355 9.63043 49.0658 9.63043 49.0658C9.63043 49.0658 11.0496 47.331 12.4688 45.5971C13.8879 43.8623 12.9418 42.4431 13.8879 42.1274C14.834 41.8117 19.4072 38.816 19.4072 38.816C19.4072 38.816 24.0567 42.254 27.1781 44.867C30.2995 47.48 36.5424 46.5367 40.3165 47.48C44.0917 48.4233 49.5346 52.489 52.439 54.7388C55.3425 56.9886 57.8102 55.7547 60.2779 56.5537C62.7456 57.3517 69.7148 61.0542 71.6741 61.5617C73.6343 62.0702 78.7875 61.5617 78.7875 61.5617C78.7875 61.5617 80.8194 65.4085 82.9975 68.0951C85.1747 70.7807 90.3289 73.6116 90.3289 73.6116C90.3289 73.6116 91.4175 75.8623 92.3608 76.5877C93.3051 77.3131 94.0305 77.2405 94.0305 77.2405C94.0305 77.2405 95.4096 79.9261 96.8614 82.757C98.3131 85.5879 100.999 89.362 103.539 91.6854C106.079 94.0078 107.386 96.4038 110.798 99.8875C114.21 103.372 120.234 104.315 120.234 104.315L122.919 107.945C122.919 107.945 122.411 109.76 121.54 111.285C120.67 112.809 119.29 117.672 119.145 121.302C119 124.93 117.911 133.351 117.258 135.093C116.605 136.835 115.951 142.787 116.242 147.65C116.532 152.514 118.202 160.425 118.129 164.345C118.057 168.264 119.508 168.991 120.67 169.498C121.831 170.007 131.195 170.079 131.848 169.934C132.501 169.789 132.066 168.264 132.066 168.264H139.833C139.833 168.264 139.85 167.166 139.196 166.731C138.543 166.296 134.389 166.305 132.719 166.232C131.05 166.16 124.445 162.761 124.445 162.761C124.445 162.761 123.936 162.022 124.154 158.683C124.372 155.344 124.807 147.069 126.042 142.932C127.276 138.794 126.187 135.891 126.985 132.842C127.783 129.793 128.292 122.68 128.873 121.083C129.454 119.486 131.558 116.8 133.01 113.751C134.462 110.703 134.244 108.38 134.244 106.202C134.244 104.024 134.897 101.701 134.897 101.701C134.897 101.701 135.114 102.717 135.478 103.516C135.841 104.314 140.85 107.944 143.172 108.67C145.496 109.396 152.463 108.96 158.053 108.089C163.642 107.218 165.892 103.225 166.691 99.1602C167.489 95.0955 164.731 93.1353 163.352 90.9581C161.972 88.78 159.359 87.6188 158.488 87.982C157.617 88.3452 152.246 87.1113 150.286 87.0387C148.326 86.966 145.132 88.781 143.318 89.5064C142.664 86.2397 144.842 81.0864 144.914 78.1829C144.986 75.2794 145.858 73.6097 146.729 70.5609C147.599 67.5121 144.914 62.939 144.914 62.939C144.914 62.939 155.801 64.8265 157.762 65.1888C159.723 65.5519 170.683 66.7858 172.933 66.5679C175.183 66.35 175.038 62.8663 175.038 62.8663L176.417 63.4474C176.417 63.4474 178.812 65.1171 179.103 66.2057C179.393 67.2942 182.152 70.7062 182.805 71.5769C183.458 72.4476 185.418 78.1093 186.798 80.7232C188.177 83.3362 189.483 85.0785 191.516 85.369C193.548 85.6595 194.129 82.9013 196.016 79.0545C197.901 75.2077 198.263 70.0544 196.595 67.0056ZM132.706 69.4137C131.215 69.7396 125.904 67.5969 123.296 66.1992C120.687 64.8014 118.59 63.683 118.59 63.683L118.031 62.1922C118.031 62.1922 120.174 59.5829 120.314 59.4898C120.314 59.4898 129.166 59.3501 130.33 59.4898C131.495 59.6295 135.688 61.9128 135.688 61.9128L135.874 68.8084C135.874 68.8084 134.197 69.0878 132.706 69.4137Z" fill="white"/>
</svg>
