<svg width="190" height="170" viewBox="0 0 190 170" fill="none" xmlns="http://www.w3.org/2000/svg">
<path d="M167.112 39.8507L171.604 37.7631C171.604 37.7631 171.405 36.5701 171.006 36.5701C170.606 36.5701 165.25 37.5634 165.25 37.5634C165.25 37.5634 160.523 37.4647 159.026 36.5701C157.528 35.6756 151.238 35.6756 147.344 35.3771C143.451 35.0787 129.574 34.2836 127.178 33.9851C124.783 33.6867 119.791 32.594 119.791 32.594C119.791 32.594 118.093 28.7173 115.298 28.7173C112.503 28.7173 106.912 28.6178 106.912 28.6178C106.912 28.6178 104.815 27.8227 104.017 26.7292C103.218 25.6356 103.518 21.9579 103.518 21.9579C103.518 21.9579 104.716 18.7768 103.918 15.8942C103.119 13.0115 101.621 11.5209 101.621 11.5209C101.621 11.5209 103.119 10.2284 102.719 9.43331C102.32 8.63824 95.8304 7.04809 95.8304 7.04809C95.8304 7.04809 93.7337 3.1714 93.4339 2.97243C93.1342 2.77346 81.993 -0.586546 81.1542 0.0897885C80.9084 0.287955 70.6713 7.54471 70.6713 7.54471C70.6713 7.54471 67.5762 11.3219 67.2772 12.5149C66.9775 13.7079 68.0758 16.3916 68.2756 17.8823C68.4755 19.3729 68.9743 20.7649 70.2724 21.9579C71.5706 23.1509 75.7632 26.7292 77.4611 27.7232C79.1581 28.7173 81.1549 30.8048 81.1549 30.8048C81.1549 30.8048 76.611 37.3652 74.1911 37.5642C71.7704 37.7631 67.278 37.8626 66.5794 41.0429C65.8807 44.224 67.278 47.1067 64.0838 47.6033C60.8887 48.0999 58.8927 47.7028 58.6929 50.287C58.493 52.8711 55.099 52.3745 56.9958 54.8592C58.8927 57.3439 63.7099 62.7121 68.7889 66.7869C73.868 70.8626 77.7617 70.1662 77.7617 70.1662C77.7617 70.1662 78.5602 72.4527 78.2613 72.9494C77.9615 73.446 74.7673 75.633 73.4691 76.7266C72.1709 77.8201 62.8863 86.9646 61.3891 88.6543C59.8919 90.3439 53.103 99.2903 53.003 101.676C52.9031 104.061 55.2996 108.931 55.2996 108.931C55.2996 108.931 58.4947 112.609 58.5938 112.908C58.6937 113.206 56.6969 115.591 58.0942 116.486C59.4923 117.38 55.8983 119.07 58.1941 119.965C60.4907 120.859 59.4922 123.742 61.489 124.636C63.4859 125.531 64.3843 126.227 64.4843 126.525C64.5842 126.823 70.2749 142.031 70.2749 142.031C70.2749 142.031 68.378 144.516 69.1765 145.609C69.9751 146.703 69.6761 153.561 71.0734 154.853C72.4715 156.146 73.4699 159.724 73.0702 161.812C72.6705 163.899 71.772 167.079 72.7704 168.77C73.7688 170.459 77.2629 170.36 78.2613 168.77C79.2597 167.18 82.6538 164.297 83.3524 160.42C84.0511 156.544 84.8504 153.86 85.3492 152.369C85.8488 150.879 85.8488 149.686 85.3492 149.387C84.8504 149.089 80.2581 145.809 80.2581 145.809C80.2581 145.809 79.9583 142.33 77.7625 140.342C77.3628 135.273 77.2637 132.688 77.2637 132.688C77.2637 132.688 80.6578 134.776 81.1574 135.77C81.6562 136.764 82.2557 140.243 83.1542 141.932C84.0527 143.622 85.0011 146.206 85.7247 146.902C86.4483 147.598 88.3452 147.3 89.2437 145.412C90.1422 143.523 91.6402 140.74 91.9392 137.46C92.2389 134.18 92.438 130.502 92.7377 128.714C93.0375 126.925 92.338 123.942 91.7393 123.544C91.1406 123.147 86.2485 123.346 86.2485 123.346C86.2485 123.346 81.4563 117.68 80.2581 117.084C79.0598 116.487 76.9639 113.306 76.6641 113.008C76.3644 112.709 75.6657 111.517 75.6657 111.517L75.4659 108.734C75.4659 108.734 79.7585 103.665 82.055 101.478C84.3516 99.2911 91.1398 96.6074 93.2365 93.1287C95.3332 89.6499 96.3316 81.996 95.932 81.3999C95.5323 80.8038 95.0335 78.1193 95.0335 78.1193C95.0335 78.1193 96.6306 77.8209 98.0287 77.7222C99.426 77.6227 102.322 70.8634 103.221 69.1738C104.119 67.4841 104.019 63.2095 106.416 61.5199C108.811 59.8302 112.106 58.3388 112.206 53.7665C112.306 49.1942 113.105 46.2121 114.502 45.7155C115.9 45.2189 116.798 45.1194 118.296 45.0199C119.793 44.9204 127.78 45.616 128.579 44.9204C129.377 44.2248 129.577 46.4111 132.173 45.417C134.768 44.423 144.353 42.3354 144.353 42.3354L152.14 41.0429C152.14 41.0429 154.237 42.1364 155.435 42.1364C156.633 42.1364 158.929 43.7266 158.929 43.7266L160.367 46.5017C160.367 46.5017 159.487 48.3053 159.628 48.5973C160.026 49.4237 161.425 49.0939 162.024 48.2989C162.623 47.5038 163.122 46.0123 163.122 46.0123V44.8193C163.122 44.8193 170.899 46.5226 171.411 46.2458C172.154 45.843 171.708 44.9188 171.708 44.9188L168.314 43.9248L168.601 42.7101C168.601 42.7101 172.132 43.6688 172.507 43.4273C173 43.1096 173 42.1541 173 42.1541L167.112 39.8507ZM88.4419 9.13646C87.4435 9.63308 88.1422 11.3235 87.3436 12.2181C86.545 13.1126 85.9463 17.1883 85.8464 17.8839C85.7465 18.5795 86.7449 21.065 86.7449 21.065L85.2477 21.9595C85.2477 21.9595 83.4507 20.4689 81.055 18.3813C78.6593 16.2937 76.3628 13.014 76.3628 13.014L80.4563 6.95101L82.1534 5.85748H84.5498C84.5498 5.85748 85.7481 6.15594 86.147 6.75204C86.5458 7.34815 87.5443 7.84557 87.5443 7.84557L88.143 6.45439L90.7385 7.94505C90.7385 7.94345 89.4403 8.63984 88.4419 9.13646Z" fill="white"/>
</svg>
