<svg width="112" height="170" viewBox="0 0 112 170" fill="none" xmlns="http://www.w3.org/2000/svg">
<path d="M107.799 54.0813C105.976 50.9899 98.0496 49.7219 91.7086 48.3744C91.1541 45.9169 88.6966 44.0944 87.7456 43.1433C86.7946 42.1923 85.0506 40.6064 85.2881 38.9419C85.5257 37.2774 84.5746 37.832 83.7817 35.771C82.9887 33.71 81.8002 29.2711 79.3428 27.4485C76.8853 25.6251 67.1359 11.1206 62.8559 8.02909C58.5759 4.93764 52.1554 0.578169 50.966 0.103097C49.7774 -0.372848 46.7646 0.896032 45.0215 1.92652C43.2775 2.957 40.4245 7.31648 39.394 13.1815C38.3635 19.0474 38.4429 27.9245 38.2054 31.491C37.9679 35.0575 38.2054 41.3199 38.9189 42.3504C39.6324 43.3809 38.3643 44.4114 38.1259 45.5213C37.8884 46.6313 34.1629 50.4353 32.8154 51.4658C31.468 52.4963 28.773 57.2523 28.773 57.2523L20.688 63.1968C20.688 63.1968 16.8831 65.8123 14.9016 68.2697C12.9201 70.7272 11.2556 74.6107 9.74917 76.5127C8.24361 78.4148 8.68114 80.0793 8.68114 80.0793H7.44979C7.44979 80.0793 3.56626 83.6458 2.21877 86.1032C0.871281 88.5607 3.01172 92.3647 3.56626 93.9506C4.1208 95.5357 5.94422 100.134 6.89524 100.609C7.84625 101.085 9.19375 103.78 8.48027 104.731C7.76679 105.682 8.16328 108.297 8.00434 109.724C7.8454 111.151 5.38881 113.925 4.51639 115.035C3.64484 116.145 1.02934 117.333 0.79093 118.364C0.553394 119.394 1.10794 120.821 2.25632 121.772C3.4047 122.723 4.51639 124.863 4.51639 124.863C4.51639 124.863 3.96184 126.607 3.96184 127.955C3.96184 129.302 2.29734 133.424 2.29036 135.089C2.28424 136.753 2.21787 148.96 2.29036 151.893C2.36284 154.825 2.61437 160.929 2.5349 163.783C2.45543 166.637 3.08943 168.539 4.51639 169.014C4.51639 169.014 8.55886 169.965 9.98582 169.965C11.4128 169.965 20.5282 170.044 21.7963 169.965C23.0643 169.885 23.3813 169.014 23.3813 169.014H26.3138C26.3138 169.014 27.1067 168.697 26.9478 168.142C26.9312 168.084 26.8622 168.02 26.7661 167.952C29.7781 168.078 32.5246 168.174 33.2888 168.142C35.1908 168.063 36.1427 167.666 36.1427 167.666L37.6491 167.746C37.6491 167.746 37.8867 166.715 37.4902 166.478C37.0937 166.24 33.8442 164.893 33.2888 164.734C32.7342 164.575 23.4599 161.959 23.4599 161.959C23.4599 161.959 21.4784 159.508 20.5274 153.441C19.7519 148.494 20.3466 140.888 20.1623 136.143C20.9771 136.293 21.8373 136.379 22.7464 136.356C29.1668 136.198 32.7334 129.698 33.6049 125.101C34.4773 120.504 28.7704 112.974 25.1235 109.328C24.569 105.84 25.995 102.353 27.6595 100.529C29.324 98.7066 31.7815 92.1272 32.019 90.4627C32.2566 88.7982 33.8425 82.4572 34.714 79.9998C35.5855 77.5423 37.0125 75.2438 39.8664 73.4213C42.7203 71.5978 50.0918 73.1043 50.0918 73.1043C50.0918 73.1043 53.9753 74.8482 59.6823 73.5802C65.3893 72.3122 65.3098 68.9037 67.2118 68.5073C69.1139 68.1108 71.2543 68.1108 73.7118 69.3788C76.1692 70.6468 80.4492 67.4768 83.6987 67.7938C86.9482 68.1108 91.3086 65.1783 91.3086 65.1783C91.3086 65.1783 93.9241 66.2088 94.1617 66.2882C94.3992 66.3677 92.8142 67.9527 91.9426 68.8251C91.0711 69.6967 91.5461 72.8676 92.1802 75.2456C92.8142 77.6236 93.6071 82.5376 93.1312 83.5681C92.6552 84.5985 89.4852 89.7501 90.1987 91.8111C90.9121 93.8721 90.7532 95.8536 89.0092 97.2011C87.2653 98.5485 87.3447 101.878 87.3447 101.878C87.3447 101.878 85.9973 102.908 84.7292 104.176C83.4612 105.444 85.6802 108.456 88.0582 111.706C90.4362 114.955 91.3078 118.681 92.8937 122.486C94.4787 126.29 99.6311 130.491 99.6311 130.491C99.6311 130.491 102.247 130.491 103.118 130.015C103.991 129.539 104.625 127.478 104.149 126.527C103.674 125.576 103.118 119.235 103.435 116.064C103.752 112.893 104.307 109.564 105.259 107.266C106.21 104.967 106.686 102.827 108.033 101.242C109.381 99.6567 109.381 90.9378 109.46 87.1328C109.539 83.3279 110.094 74.6884 111.045 66.4454C112 58.2033 109.622 57.1728 107.799 54.0813ZM14.3471 165.922C12.9996 165.685 8.24361 163.941 8.24361 163.941C8.24361 163.941 7.6096 158.471 8.24361 155.381C8.76671 152.828 10.6408 144.554 11.501 140.584C12.4634 146.099 13.5541 152.21 13.5541 152.21L16.8097 165.87C15.7976 165.95 14.8763 166.016 14.3471 165.922ZM70.457 50.5934C70.457 50.5934 69.099 50.5934 63.8348 48.2163C64.0043 44.9904 58.8658 29.3051 59.0806 29.878C60.0998 32.5948 65.6181 35.4811 65.6181 35.4811C65.6181 35.4811 67.9105 42.9521 68.589 43.6315C69.2685 44.3109 71.3058 43.4621 71.3058 43.4621L72.1547 45.1598L70.457 50.5934Z" fill="white"/>
</svg>
