<svg width="219" height="87" viewBox="0 0 219 87" fill="none" xmlns="http://www.w3.org/2000/svg">
<path d="M16.6562 55.0625L16.5 55.7188C16.5 55.8438 16.5521 55.9583 16.6562 56.0625C16.7812 56.1667 16.9271 56.2188 17.0938 56.2188C17.2604 56.2188 17.3958 56.1354 17.5 55.9688C20.6042 51.8438 23.1771 48.2188 25.2188 45.0938C27.2604 41.9479 28.75 39.6354 29.6875 38.1562C30.6458 36.6771 31.4062 35.5 31.9688 34.625C33.4688 32.3333 34.9583 30.2812 36.4375 28.4688C30.8125 29.8854 26.4062 30.5938 23.2188 30.5938C20.0312 30.5938 17.7396 30.3958 16.3438 30C14.9479 29.5833 14.0312 29.125 13.5938 28.625C13.1562 28.1042 12.9375 27.5833 12.9375 27.0625C12.9375 26.5208 12.9583 26 13 25.5C13.0833 24.4583 13.7083 23.6042 14.875 22.9375C16.0625 22.2708 17.0417 21.9375 17.8125 21.9375C18.5833 21.9375 18.9688 22.0521 18.9688 22.2812C18.9688 22.5104 18.7917 22.8229 18.4375 23.2188C18.1042 23.5938 17.9375 23.8542 17.9375 24C17.9375 24.6667 20.3438 25 25.1562 25C29.9688 25 35.5 24.3646 41.75 23.0938C45.3333 20.1771 48.4271 18.7188 51.0312 18.7188C52.7604 18.7188 53.9062 19.2083 54.4688 20.1875C54.8438 20.7708 55.0312 21.3542 55.0312 21.9375C55.0312 22.5208 54.6875 23.1042 54 23.6875C53.3333 24.2708 52.4271 24.7708 51.2812 25.1875C49.1979 25.9375 46.7396 26.5312 43.9062 26.9688C42.7188 28.4896 41.0312 30.8542 38.8438 34.0625C36.6771 37.2708 35.1979 39.4375 34.4062 40.5625C33.6146 41.6875 32.3333 43.6875 30.5625 46.5625C28.8125 49.4375 27.2917 51.9271 26 54.0312C24.7083 56.1146 23.3333 58.1771 21.875 60.2188C18.8958 64.4271 16.2396 66.5312 13.9062 66.5312C12.9271 66.5312 12.0833 66.2708 11.375 65.75C10.6667 65.2292 10.3125 64.3854 10.3125 63.2188C10.3125 62.0312 10.9583 60.5625 12.25 58.8125C13.5625 57.0417 14.5208 55.9062 15.125 55.4062C15.7292 54.9062 16.1354 54.6562 16.3438 54.6562C16.5521 54.6562 16.6562 54.7917 16.6562 55.0625ZM58.5938 30.6875C58.5938 31.875 58.0417 33.0729 56.9375 34.2812C55.8333 35.4688 54.6771 36.0625 53.4688 36.0625C52.2812 36.0625 51.6875 35.4375 51.6875 34.1875C51.6875 32.9375 52.2083 31.75 53.25 30.625C54.3125 29.4792 55.4792 28.9062 56.75 28.9062C57.3125 28.9062 57.7604 29.0625 58.0938 29.375C58.4271 29.6875 58.5938 30.125 58.5938 30.6875ZM53.5312 57.9688C53.5312 58.5938 53.4688 59.0417 53.3438 59.3125C52.3229 61.3958 50.6979 63.0833 48.4688 64.375C46.2396 65.6458 44.3021 66.2812 42.6562 66.2812C41.0104 66.2812 39.5938 65.7292 38.4062 64.625C37.2188 63.5208 36.625 62.3958 36.625 61.25C36.625 60.1042 37.1979 58.4375 38.3438 56.25C39.4896 54.0625 40.6354 52.0417 41.7812 50.1875C42.9271 48.3333 43.5 47.3333 43.5 47.1875C43.5 47.0208 43.2812 46.7083 42.8438 46.25C42.4271 45.7917 42.2188 45.4583 42.2188 45.25C42.2188 45.0208 42.6458 44.4479 43.5 43.5312C44.375 42.5938 45.4271 41.6771 46.6562 40.7812C47.9062 39.8646 48.8542 39.4062 49.5 39.4062C50.1667 39.4062 50.7604 39.6979 51.2812 40.2812C51.8021 40.8646 52.0625 41.3958 52.0625 41.875C52.0625 42.3542 49.5833 46.8646 44.625 55.4062C44.5625 55.5312 44.3854 55.8125 44.0938 56.25C43.8229 56.6667 43.6042 57.0208 43.4375 57.3125C43.2917 57.5833 43.1146 57.9167 42.9062 58.3125C42.4896 59.1458 42.2812 59.8438 42.2812 60.4062C42.2812 61.1146 42.7604 61.4688 43.7188 61.4688C44.6771 61.4688 45.6667 61.1458 46.6875 60.5C47.7292 59.8333 48.625 59.1042 49.375 58.3125C51.3333 56.2083 52.4479 55.1562 52.7188 55.1562C53.2604 55.1562 53.5312 56.0938 53.5312 57.9688ZM60.9688 44.25C62.9896 42.8542 64.9688 41.7812 66.9062 41.0312C68.8438 40.2812 70.5208 39.9062 71.9375 39.9062C73.3542 39.9062 74.2604 40.3125 74.6562 41.125C75.4688 40.1875 76.4792 39.6875 77.6875 39.625C78.0417 39.6042 78.4792 39.5938 79 39.5938C79.5208 39.5938 79.8438 39.6667 79.9688 39.8125C80.0938 39.9375 80.2083 40.1875 80.3125 40.5625C80.4167 40.9375 80.4792 41.1458 80.5 41.1875C80.5208 41.2292 80.5312 41.3021 80.5312 41.4062C80.5312 41.4896 80.4792 41.6042 80.375 41.75C80.2708 41.875 80.1458 42 80 42.125C79.875 42.25 79.8021 42.3229 79.7812 42.3438C75.1771 48.9479 70.4688 56.4792 65.6562 64.9375C70.6146 60.5417 75.0521 57.3854 78.9688 55.4688C79.2188 55.3438 79.4583 55.2812 79.6875 55.2812C80.0208 55.2812 80.2396 55.5 80.3438 55.9375C80.4479 56.3542 80.5 56.9583 80.5 57.75C80.5 58.5417 80.4479 59.0312 80.3438 59.2188C80.2604 59.4062 79.7812 59.7812 78.9062 60.3438C78.0312 60.9062 76.8958 61.6354 75.5 62.5312C74.1042 63.4271 72.625 64.4167 71.0625 65.5C67.3125 68.1042 64.2292 70.8438 61.8125 73.7188C58.6875 77.4896 56.4479 80.5312 55.0938 82.8438C54.5938 83.7396 53.75 84.1875 52.5625 84.1875C50.2083 84.1875 49.0312 83.0729 49.0312 80.8438C49.0312 78.5729 50.1458 76.25 52.375 73.875C54.0417 72.1042 55.5729 70.6562 56.9688 69.5312C58.3646 68.4062 59.125 67.7708 59.25 67.625C60.7917 65.3125 62.8854 62.0312 65.5312 57.7812C63.2812 60.1354 61.0938 62.0104 58.9688 63.4062C56.8646 64.8021 55.2917 65.5 54.25 65.5C51.0625 65.5 49.4688 64.1354 49.4688 61.4062C49.4688 59.2396 50.0208 57.0521 51.125 54.8438C52.2292 52.6354 53.6458 50.6667 55.375 48.9375C57.1042 47.1875 58.9688 45.625 60.9688 44.25ZM72.875 43.4375C70.4583 43.9583 68.1875 44.8229 66.0625 46.0312C63.9375 47.2188 62.1875 48.5 60.8125 49.875C59.4375 51.2292 58.25 52.625 57.25 54.0625C55.375 56.75 54.4375 58.8333 54.4375 60.3125C54.4375 60.6667 54.5208 60.8438 54.6875 60.8438C54.875 60.8438 55.2708 60.6562 55.875 60.2812C56.5 59.9062 57.375 59.2708 58.5 58.375C59.625 57.4583 60.875 56.375 62.25 55.125C65.4375 52.1875 68.9792 48.2917 72.875 43.4375ZM99.5625 41.625C99.5625 43 99 44.2083 97.875 45.25C96.7708 46.2917 95.5104 46.8125 94.0938 46.8125C93.6354 46.8125 93.3333 46.7083 93.1875 46.5C93.0417 46.2708 92.9688 45.9792 92.9688 45.625C92.9688 45.2708 93.0104 44.9271 93.0938 44.5938C92.3438 44.8438 91.5104 45.2292 90.5938 45.75C89.6771 46.2708 88.5521 47.0417 87.2188 48.0625C85.8854 49.0833 85.2188 49.8438 85.2188 50.3438C85.2188 50.5104 85.4583 50.5938 85.9375 50.5938C86.4375 50.5938 87.1979 50.4271 88.2188 50.0938C89.2396 49.7396 89.9479 49.5625 90.3438 49.5625C90.7604 49.5625 91.0312 49.5833 91.1562 49.625C91.4271 49.7708 91.7188 50.0938 92.0312 50.5938C92.3438 51.0729 92.5 51.4583 92.5 51.75C92.5 52.0208 92.2292 52.3854 91.6875 52.8438C91.1458 53.3021 90.5312 53.6562 89.8438 53.9062C89.1562 54.1354 88.6979 54.3125 88.4688 54.4375C84.0729 56.8958 81.875 58.5833 81.875 59.5C81.875 61.125 83.2604 61.9375 86.0312 61.9375C87.8021 61.9375 89.5833 61.375 91.375 60.25C92.8958 59.2917 94.2604 58.3229 95.4688 57.3438C96.6979 56.3438 97.4688 55.7292 97.7812 55.5C98.1146 55.2708 98.3646 55.1562 98.5312 55.1562C99.0729 55.1562 99.3438 55.7604 99.3438 56.9688C99.3438 58.1771 99.2708 58.9792 99.125 59.375C98.9792 59.75 98.5625 60.2188 97.875 60.7812C93.4167 64.4062 89.1979 66.2188 85.2188 66.2188C83.0938 66.2188 81.3958 65.9271 80.125 65.3438C77.7917 64.2812 76.625 62.6562 76.625 60.4688C76.625 57.5938 78.6146 55.4167 82.5938 53.9375C81.8021 53.5833 81.2917 53.1354 81.0625 52.5938C80.8333 52.0312 80.7188 51.1458 80.7188 49.9375C80.7188 48.7083 81.2812 47.4167 82.4062 46.0625C83.5521 44.6875 84.9479 43.5625 86.5938 42.6875C90.2604 40.7083 93.5312 39.7188 96.4062 39.7188C97.0938 39.7188 97.7917 39.8854 98.5 40.2188C99.2083 40.5521 99.5625 41.0208 99.5625 41.625ZM108.594 47.9688C113.51 42.3854 117.698 39.5938 121.156 39.5938C122.01 39.5938 122.708 39.8542 123.25 40.375C123.812 40.875 124.094 41.5312 124.094 42.3438C124.094 43.1562 123.51 44.5208 122.344 46.4375C121.198 48.3333 120.135 49.9375 119.156 51.25C118.635 51.9167 118.042 52.25 117.375 52.25C116.729 52.25 116.219 52.0104 115.844 51.5312C115.49 51.0521 115.312 50.4896 115.312 49.8438C115.312 48.4062 116.083 46.7812 117.625 44.9688L117.562 44.9062C116.875 44.9688 115.167 46.3229 112.438 48.9688C109.729 51.6146 107.417 53.9896 105.5 56.0938C103.604 58.1771 101.542 60.7188 99.3125 63.7188C98.6667 64.6146 98.1146 65.0625 97.6562 65.0625C97.2188 65.0625 96.6354 64.9271 95.9062 64.6562C95.1562 64.3646 94.7083 64.1562 94.5625 64.0312C94.3958 63.9062 94.3125 63.6979 94.3125 63.4062C94.3125 63.1146 94.3958 62.7812 94.5625 62.4062C94.7292 62.0104 95.0417 61.4583 95.5 60.75C95.9375 60.0417 96.6042 58.8958 97.5 57.3125C98.4167 55.7292 99.8333 53.3333 101.75 50.125C103.667 46.9167 104.812 44.9792 105.188 44.3125C105.979 42.9375 106.625 41.9375 107.125 41.3125C108.062 40.125 109.646 39.5312 111.875 39.5312C112.375 39.5312 112.625 39.8438 112.625 40.4688C112.625 41.4479 111.719 43.2917 109.906 46L108.594 47.9688ZM161.562 55.7812C161.708 56.7396 161.781 57.5 161.781 58.0625C161.781 58.6042 161.677 59.0833 161.469 59.5C161.281 59.8958 160.844 60.4688 160.156 61.2188C159.49 61.9479 158.688 62.6875 157.75 63.4375C155.458 65.25 153.115 66.1562 150.719 66.1562C147.281 66.1562 145.562 64.6354 145.562 61.5938C145.562 58.9479 147.865 53.6771 152.469 45.7812C152.635 45.4896 152.75 45.2812 152.812 45.1562C151.208 46.2812 148.135 49.3542 143.594 54.375C139.073 59.375 136.062 62.9167 134.562 65C134.438 65.1875 134.125 65.3958 133.625 65.625C133.125 65.8542 132.729 65.9688 132.438 65.9688C132.167 65.9688 131.875 65.875 131.562 65.6875C131.229 65.5208 131.021 65.4375 130.938 65.4375C130.667 65.4375 130.531 65.3438 130.531 65.1562C130.531 64.9896 130.906 64.0417 131.656 62.3125C132.385 60.5625 133.354 58.3958 134.562 55.8125C137.875 48.6875 142.802 39.4167 149.344 28C151.635 24 153.427 21.1667 154.719 19.5C155.635 18.3125 157.177 17.7188 159.344 17.7188C159.802 17.7188 160.062 17.8542 160.125 18.125C160.188 18.3958 160.219 18.6875 160.219 19C160.219 19.3125 160.156 19.625 160.031 19.9375L156.688 25.1562C150.062 35.4896 145.073 44.0521 141.719 50.8438C144.969 46.8854 148.125 43.8333 151.188 41.6875C153.083 40.3333 154.5 39.6562 155.438 39.6562C156.396 39.6562 157.26 39.8125 158.031 40.125C158.802 40.4167 159.188 41.1354 159.188 42.2812C159.188 42.6979 158.51 44.2396 157.156 46.9062C153.094 54.9062 151.062 59.3542 151.062 60.25C151.062 61.125 151.427 61.5625 152.156 61.5625C153.219 61.5625 154.854 60.5312 157.062 58.4688C158.729 56.9062 159.781 55.9062 160.219 55.4688C160.469 55.2812 160.698 55.1875 160.906 55.1875C161.302 55.1875 161.521 55.3854 161.562 55.7812ZM179.594 30.6875C179.594 31.875 179.042 33.0729 177.938 34.2812C176.833 35.4688 175.677 36.0625 174.469 36.0625C173.281 36.0625 172.688 35.4375 172.688 34.1875C172.688 32.9375 173.208 31.75 174.25 30.625C175.312 29.4792 176.479 28.9062 177.75 28.9062C178.312 28.9062 178.76 29.0625 179.094 29.375C179.427 29.6875 179.594 30.125 179.594 30.6875ZM174.531 57.9688C174.531 58.5938 174.469 59.0417 174.344 59.3125C173.323 61.3958 171.698 63.0833 169.469 64.375C167.24 65.6458 165.302 66.2812 163.656 66.2812C162.01 66.2812 160.594 65.7292 159.406 64.625C158.219 63.5208 157.625 62.3958 157.625 61.25C157.625 60.1042 158.198 58.4375 159.344 56.25C160.49 54.0625 161.635 52.0417 162.781 50.1875C163.927 48.3333 164.5 47.3333 164.5 47.1875C164.5 47.0208 164.281 46.7083 163.844 46.25C163.427 45.7917 163.219 45.4583 163.219 45.25C163.219 45.0208 163.646 44.4479 164.5 43.5312C165.375 42.5938 166.427 41.6771 167.656 40.7812C168.906 39.8646 169.854 39.4062 170.5 39.4062C171.167 39.4062 171.76 39.6979 172.281 40.2812C172.802 40.8646 173.062 41.3958 173.062 41.875C173.062 42.3542 170.583 46.8646 165.625 55.4062C165.562 55.5312 165.385 55.8125 165.094 56.25C164.823 56.6667 164.604 57.0208 164.438 57.3125C164.292 57.5833 164.115 57.9167 163.906 58.3125C163.49 59.1458 163.281 59.8438 163.281 60.4062C163.281 61.1146 163.76 61.4688 164.719 61.4688C165.677 61.4688 166.667 61.1458 167.688 60.5C168.729 59.8333 169.625 59.1042 170.375 58.3125C172.333 56.2083 173.448 55.1562 173.719 55.1562C174.26 55.1562 174.531 56.0938 174.531 57.9688ZM198.156 18.0938C199.156 18.0938 200.031 18.3958 200.781 19C201.552 19.5833 201.938 20.4583 201.938 21.625C201.938 22.7917 201.292 24.625 200 27.125C198.708 29.6042 197.156 32.1458 195.344 34.75C193.531 37.3333 191.479 40.0833 189.188 43C185.562 47.625 182.083 51.7812 178.75 55.4688C178.729 55.7188 178.635 56.1875 178.469 56.875C178.323 57.5417 178.25 58.2188 178.25 58.9062C178.25 59.5938 178.562 60.2188 179.188 60.7812C179.833 61.3229 180.625 61.5938 181.562 61.5938C182.5 61.5938 183.5 61.2604 184.562 60.5938C185.646 59.9271 186.583 59.1875 187.375 58.375C189.458 56.2292 190.75 55.1562 191.25 55.1562C191.75 55.1562 192 55.9167 192 57.4375V58.0625C192 58.875 191.854 59.4688 191.562 59.8438C189.812 61.9896 187.844 63.5938 185.656 64.6562C183.469 65.6979 181.396 66.2188 179.438 66.2188C177.479 66.2188 175.99 65.625 174.969 64.4375C173.948 63.2292 173.438 61.5833 173.438 59.5C173.438 55.4375 174.521 50.6667 176.688 45.1875C178.875 39.6875 181.333 35.0104 184.062 31.1562C190.208 22.4479 194.906 18.0938 198.156 18.0938ZM196.75 23.2812C196.75 22.9688 196.646 22.8125 196.438 22.8125C195.708 22.8125 193.792 24.8958 190.688 29.0625C187.583 33.2292 185.333 36.5521 183.938 39.0312C182.562 41.5104 181.26 44.625 180.031 48.375C182.49 45.4583 185.885 40.9167 190.219 34.75C194.573 28.5625 196.75 24.7396 196.75 23.2812ZM214.656 18.0938C215.656 18.0938 216.531 18.3958 217.281 19C218.052 19.5833 218.438 20.4583 218.438 21.625C218.438 22.7917 217.792 24.625 216.5 27.125C215.208 29.6042 213.656 32.1458 211.844 34.75C210.031 37.3333 207.979 40.0833 205.688 43C202.062 47.625 198.583 51.7812 195.25 55.4688C195.229 55.7188 195.135 56.1875 194.969 56.875C194.823 57.5417 194.75 58.2188 194.75 58.9062C194.75 59.5938 195.062 60.2188 195.688 60.7812C196.333 61.3229 197.125 61.5938 198.062 61.5938C199 61.5938 200 61.2604 201.062 60.5938C202.146 59.9271 203.083 59.1875 203.875 58.375C205.958 56.2292 207.25 55.1562 207.75 55.1562C208.25 55.1562 208.5 55.9167 208.5 57.4375V58.0625C208.5 58.875 208.354 59.4688 208.062 59.8438C206.312 61.9896 204.344 63.5938 202.156 64.6562C199.969 65.6979 197.896 66.2188 195.938 66.2188C193.979 66.2188 192.49 65.625 191.469 64.4375C190.448 63.2292 189.938 61.5833 189.938 59.5C189.938 55.4375 191.021 50.6667 193.188 45.1875C195.375 39.6875 197.833 35.0104 200.562 31.1562C206.708 22.4479 211.406 18.0938 214.656 18.0938ZM213.25 23.2812C213.25 22.9688 213.146 22.8125 212.938 22.8125C212.208 22.8125 210.292 24.8958 207.188 29.0625C204.083 33.2292 201.833 36.5521 200.438 39.0312C199.062 41.5104 197.76 44.625 196.531 48.375C198.99 45.4583 202.385 40.9167 206.719 34.75C211.073 28.5625 213.25 24.7396 213.25 23.2812Z" fill="#F37B0D"/>
</svg>
