<svg width="156" height="170" viewBox="0 0 156 170" fill="none" xmlns="http://www.w3.org/2000/svg">
<path d="M94.4942 21.2244C94.4942 21.2244 93.9606 22.8293 93.7321 23.211C93.5035 23.5927 93.8375 24.9975 93.1406 26.3943C92.6964 27.2852 91.6735 28.7893 91.445 29.4776C91.2164 30.1651 91.445 31.2351 91.445 31.2351C91.445 31.2351 93.6548 33.7567 95.1033 34.5975C96.5511 35.4383 98.4567 36.2025 98.9903 37.425C99.5238 38.6475 104.935 42.9274 109.736 45.2198C114.537 47.5123 115.452 45.8315 119.948 48.659C124.445 51.4864 135.496 57.5238 135.496 57.5238C135.496 57.5238 138.164 58.6704 138.621 59.3579C139.078 60.0454 140.679 63.9429 141.669 66.312C142.66 68.6811 148.452 73.2661 148.452 73.6486C148.452 74.031 147.961 74.3966 147.961 74.3966L144.656 72.0702C144.656 72.0702 147.551 75.3028 147.571 75.5287C147.591 75.7554 146.873 76.4139 146.462 76.3316C146.052 76.2493 143.814 73.3258 143.814 73.3258C143.814 73.3258 145.046 75.5698 144.943 75.8579C144.84 76.146 144.142 76.2493 143.875 76.146C143.608 76.0427 141.719 72.9344 141.288 72.1727C140.856 71.411 138.68 68.3842 137.962 68.055C137.243 67.7257 136.38 67.3546 135.539 67.8904C134.697 68.4262 133.732 69.8052 133.219 69.8254C132.705 69.8463 131.412 69.5986 131.289 69.2904C131.166 68.9813 133.136 67.7459 133.548 66.8607C133.958 65.9755 134.43 63.2368 134.43 63.2368C134.43 63.2368 127.833 60.2286 123.447 59.0013C119.06 57.774 113.755 55.8809 112.174 55.0627C110.592 54.2445 109.318 53.0171 109.318 53.0171C109.318 53.0171 104.268 50.9716 101.768 49.7951C99.2687 48.6186 97.4838 47.3404 97.4838 47.3404C97.4838 47.3404 95.8518 52.7105 93.9638 55.4218C92.0767 58.1322 87.9451 64.0655 87.69 66.3161C87.4349 68.5666 86.8998 71.8653 86.1345 72.326C85.3692 72.786 75.9858 70.6492 75.9858 70.6492C75.9858 70.6492 73.2803 73.4767 73.2803 75.9314C73.2803 78.386 75.4619 82.4158 73.7027 87.1718C71.9428 91.9286 67.9247 97.7957 65.706 98.7931C63.4873 99.7905 65.8589 101.248 64.4055 102.936C62.9521 104.624 65.4002 105.621 63.6402 108.306C61.8802 110.991 61.6509 112.525 62.1096 114.367C62.5691 116.208 63.1042 118.663 65.17 120.274C67.2358 121.886 76.1114 127.639 76.4172 129.941C76.723 132.242 80.3958 131.245 81.0074 133.624C81.6198 136.002 81.6198 137.46 83.379 138.764C85.139 140.068 86.1337 141.833 86.1337 141.833C86.1337 141.833 89.883 141.986 93.0963 143.827C96.3097 145.669 97.3808 148.584 97.3808 148.584L87.587 164.619C87.587 164.619 81.8484 165.156 81.3897 164.619C80.9302 164.082 82.6137 161.013 82.6137 161.013C82.6137 161.013 81.1603 154.645 81.3132 153.648C81.4661 152.65 80.395 151.346 80.395 151.346L76.2634 149.428C76.4928 148.892 78.0999 146.666 78.0999 146.666L75.0394 144.442C75.0394 144.442 73.8154 146.206 72.7443 145.592C71.6732 144.978 70.9843 143.904 70.9843 143.904C70.9843 143.904 69.4545 145.361 67.9239 144.057C66.3932 142.753 65.3221 138.073 64.1746 136.693C63.027 135.312 53.6163 129.097 51.3968 126.719C49.1781 124.341 47.8776 115.058 48.1835 112.986C48.4893 110.915 48.1392 106.619 48.1392 106.619L40.4957 112.375C40.4957 112.375 39.0786 114.06 39.691 115.211C40.3034 116.361 44.1283 123.036 44.1283 125.491C44.1283 127.946 43.2866 132.779 44.4341 134.237C45.5817 135.694 47.6475 136.462 46.8057 138.227C45.964 139.991 45.3524 140.989 46.1933 141.909C47.0343 142.83 49.0244 144.978 50.4013 146.896C51.7782 148.814 52.4671 150.886 51.7018 153.11C50.9365 155.335 47.0713 166.153 47.0713 166.153C46.7655 166.92 45.428 169.528 43.2085 169.912C40.9898 170.295 39.0005 169.529 38.3881 165.539C37.7757 161.55 36.9339 154.415 36.2459 153.648C35.557 152.88 31.4834 150.514 31.5019 149.505C31.5582 146.492 34.5752 147.783 34.5752 147.783C34.5752 147.783 36.2459 145.439 35.8636 144.365C35.4813 143.291 35.0983 143.598 34.2565 143.061C33.4148 142.523 32.1143 139.916 31.8849 138.688C31.6556 137.461 29.5133 136.617 29.1303 135.159C28.748 133.701 28.2121 120.889 27.2939 118.818C26.3756 116.746 24.6157 112.757 25.0752 110.071C25.5339 107.386 25.4574 105.085 29.5898 100.021C33.7214 94.9578 41.1427 87.0556 43.2085 85.2909C45.2743 83.5261 49.7881 77.542 51.5481 75.9314C53.3081 74.3199 55.8326 71.2512 55.8326 69.4873C55.8326 67.7225 55.909 67.0326 55.909 67.0326C55.909 67.0326 52.2362 67.6467 52.1597 66.1886C52.0833 64.7313 54.8379 59.3604 54.9908 57.5964C55.1437 55.8317 60.4993 44.8608 60.1935 42.6361C59.8877 40.4114 59.6583 38.1867 62.0299 37.726C64.4015 37.266 67.7686 36.1145 67.9979 34.9639C68.2273 33.8132 68.8397 31.6652 70.0637 31.5885C71.2877 31.5118 77.7917 29.9004 77.7917 29.9004L78.557 23.763C78.557 23.763 77.4859 23.7525 77.4094 21.8392C77.333 19.9268 76.9507 18.1621 77.5623 17.9321C78.1747 17.7022 78.8628 17.5488 78.8628 17.5488C78.8628 17.5488 78.3276 13.7127 79.781 12.2554C81.2344 10.7981 84.64 7.65273 86.7251 8.03602C88.8094 8.41931 92.8646 10.1074 93.7063 12.4087C94.5481 14.7101 95.8485 15.4775 95.6192 17.5488C95.3931 19.6186 94.4942 21.2244 94.4942 21.2244Z" fill="white"/>
<path d="M86.16 9.13354C86.16 9.13354 85.4462 6.26977 83.9156 6.47392C82.385 6.67888 80.4471 9.64513 82.5894 11.0774" fill="white"/>
<path d="M83.9158 6.47385C83.9158 6.47385 80.5495 3.5076 75.3468 2.17779C70.1442 0.847985 62.7992 1.35957 58.2082 0.336396C53.6171 -0.686782 49.945 0.950464 49.945 0.950464C49.945 0.950464 55.0455 0.102389 59.0242 1.90748C63.0028 3.71256 70.45 5.14405 70.45 5.14405C70.45 5.14405 55.9637 4.73493 52.9033 6.47385C49.8428 8.21277 47.1904 13.3271 47.1904 13.3271L51.3727 11.0765C51.3727 11.0765 45.762 15.1685 45.8642 21.1009C45.9664 27.0334 48.0064 30.5121 48.0064 30.5121C48.0064 30.5121 49.2304 20.0786 58.8198 17.5214C53.1069 22.6357 52.8011 26.1136 52.8011 26.1136C52.8011 26.1136 59.738 17.8281 63.3087 17.0098C66.8793 16.1916 62.3904 17.6239 62.0846 19.6695C64.9415 18.6463 67.5939 19.3628 69.8376 16.7032C72.082 14.0436 75.6526 14.2486 77.1825 12.3047C78.7123 10.3608 80.8698 7.15732 83.3613 9.21981" fill="white"/>
</svg>
